{
  "accessors": [
    {
      "bufferView": 2,
      "componentType": 5126,
      "count": 38503,
      "max": [
        0.47857826948165894,
        0.13621628284454346,
        0.4837697744369507
      ],
      "min": [
        -0.4911234974861145,
        0.02621726505458355,
        -0.48621031641960144
      ],
      "type": "VEC3"
    },
    {
      "bufferView": 2,
      "byteOffset": 462036,
      "componentType": 5126,
      "count": 38503,
      "max": [
        1.0,
        1.0,
        1.0
      ],
      "min": [
        -1.0,
        -1.0,
        -1.0
      ],
      "type": "VEC3"
    },
    {
      "bufferView": 3,
      "componentType": 5126,
      "count": 38503,
      "max": [
        1.0,
        1.0,
        1.0,
        1.0
      ],
      "min": [
        -0.9999998211860657,
        -1.0,
        -1.0,
        -1.0
      ],
      "type": "VEC4"
    },
    {
      "bufferView": 1,
      "componentType": 5126,
      "count": 38503,
      "max": [
        1.0,
        0.9994990229606628
      ],
      "min": [
        0.0,
        0.0
      ],
      "type": "VEC2"
    },
    {
      "bufferView": 0,
      "componentType": 5125,
      "count": 143694,
      "type": "SCALAR"
    },
    {
      "bufferView": 2,
      "byteOffset": 924072,
      "componentType": 5126,
      "count": 15677,
      "max": [
        0.48611050844192505,
        0.08985413610935211,
        0.4841741621494293
      ],
      "min": [
        -0.4835912585258484,
        0.012034318409860134,
        -0.4863913655281067
      ],
      "type": "VEC3"
    },
    {
      "bufferView": 2,
      "byteOffset": 1112196,
      "componentType": 5126,
      "count": 15677,
      "max": [
        1.0,
        1.0,
        1.0
      ],
      "min": [
        -1.0,
        -1.0,
        -1.0
      ],
      "type": "VEC3"
    },
    {
      "bufferView": 3,
      "byteOffset": 616048,
      "componentType": 5126,
      "count": 15677,
      "max": [
        0.9999974966049194,
        0.9999998807907104,
        1.0,
        1.0
      ],
      "min": [
        -0.9999977350234985,
        -0.9999997615814209,
        -1.0,
        -1.0
      ],
      "type": "VEC4"
    },
    {
      "bufferView": 1,
      "byteOffset": 308024,
      "componentType": 5126,
      "count": 15677,
      "max": [
        1.0,
        1.0
      ],
      "min": [
        0.0,
        0.0
      ],
      "type": "VEC2"
    },
    {
      "bufferView": 0,
      "byteOffset": 574776,
      "componentType": 5125,
      "count": 55314,
      "type": "SCALAR"
    },
    {
      "bufferView": 2,
      "byteOffset": 1300320,
      "componentType": 5126,
      "count": 65532,
      "max": [
        1.2019784450531006,
        0.04214788228273392,
        0.46664050221443176
      ],
      "min": [
        -0.2612369954586029,
        -0.13439030945301056,
        -0.6301361918449402
      ],
      "type": "VEC3"
    },
    {
      "bufferView": 2,
      "byteOffset": 2086704,
      "componentType": 5126,
      "count": 65532,
      "max": [
        1.0,
        1.0,
        0.9999537467956543
      ],
      "min": [
        -1.0,
        -1.0,
        -1.0
      ],
      "type": "VEC3"
    },
    {
      "bufferView": 3,
      "byteOffset": 866880,
      "componentType": 5126,
      "count": 65532,
      "max": [
        0.9999836683273315,
        1.0,
        1.0,
        1.0
      ],
      "min": [
        -1.0,
        -1.0,
        -0.9999999403953552,
        -1.0
      ],
      "type": "VEC4"
    },
    {
      "bufferView": 1,
      "byteOffset": 433440,
      "componentType": 5126,
      "count": 65532,
      "max": [
        0.9998044371604919,
        0.9949656128883362
      ],
      "min": [
        0.0,
        0.0
      ],
      "type": "VEC2"
    },
    {
      "bufferView": 0,
      "byteOffset": 796032,
      "componentType": 5125,
      "count": 211392,
      "type": "SCALAR"
    },
    {
      "bufferView": 2,
      "byteOffset": 2873088,
      "componentType": 5126,
      "count": 28593,
      "max": [
        1.193954348564148,
        0.09896237403154373,
        0.4831864833831787
      ],
      "min": [
        -0.2797665297985077,
        -0.14467521011829376,
        -0.6288185715675354
      ],
      "type": "VEC3"
    },
    {
      "bufferView": 2,
      "byteOffset": 3216204,
      "componentType": 5126,
      "count": 28593,
      "max": [
        1.0,
        1.0,
        0.9999889135360718
      ],
      "min": [
        -1.0,
        -1.0,
        -0.9999851584434509
      ],
      "type": "VEC3"
    },
    {
      "bufferView": 3,
      "byteOffset": 1915392,
      "componentType": 5126,
      "count": 28593,
      "max": [
        0.9999889135360718,
        1.0,
        0.9999915361404419,
        1.0
      ],
      "min": [
        -0.9997950792312622,
        -1.0,
        -0.9999682307243347,
        -1.0
      ],
      "type": "VEC4"
    },
    {
      "bufferView": 1,
      "byteOffset": 957696,
      "componentType": 5126,
      "count": 28593,
      "max": [
        0.999274730682373,
        0.9991739988327026
      ],
      "min": [
        7.529409984385893e-09,
        0.0
      ],
      "type": "VEC2"
    },
    {
      "bufferView": 0,
      "byteOffset": 1641600,
      "componentType": 5125,
      "count": 86748,
      "type": "SCALAR"
    },
    {
      "bufferView": 2,
      "byteOffset": 3559320,
      "componentType": 5126,
      "count": 30065,
      "max": [
        0.21271957457065582,
        0.2635083496570587,
        0.21957749128341675
      ],
      "min": [
        -0.39355677366256714,
        -0.17012947797775269,
        -0.08396193385124207
      ],
      "type": "VEC3"
    },
    {
      "bufferView": 2,
      "byteOffset": 3920100,
      "componentType": 5126,
      "count": 30065,
      "max": [
        1.0,
        1.0,
        1.0
      ],
      "min": [
        -1.0,
        -1.0,
        -1.0
      ],
      "type": "VEC3"
    },
    {
      "bufferView": 3,
      "byteOffset": 2372880,
      "componentType": 5126,
      "count": 30065,
      "max": [
        0.9999995827674866,
        1.0,
        1.0,
        1.0
      ],
      "min": [
        -0.999995231628418,
        -1.0,
        -1.0,
        -1.0
      ],
      "type": "VEC4"
    },
    {
      "bufferView": 1,
      "byteOffset": 1186440,
      "componentType": 5126,
      "count": 30065,
      "max": [
        1.0,
        1.0
      ],
      "min": [
        0.0,
        0.0
      ],
      "type": "VEC2"
    },
    {
      "bufferView": 0,
      "byteOffset": 1988592,
      "componentType": 5125,
      "count": 89022,
      "type": "SCALAR"
    },
    {
      "bufferView": 2,
      "byteOffset": 4280880,
      "componentType": 5126,
      "count": 11805,
      "max": [
        0.997259259223938,
        0.048192307353019714,
        0.36941009759902954
      ],
      "min": [
        -0.2790769040584564,
        -0.10664404928684235,
        -0.5080443024635315
      ],
      "type": "VEC3"
    },
    {
      "bufferView": 2,
      "byteOffset": 4422540,
      "componentType": 5126,
      "count": 11805,
      "max": [
        0.9999963045120239,
        0.999999463558197,
        0.9999996423721313
      ],
      "min": [
        -0.9999960660934448,
        -0.9999927282333374,
        -0.9999999403953552
      ],
      "type": "VEC3"
    },
    {
      "bufferView": 1,
      "byteOffset": 1426960,
      "componentType": 5126,
      "count": 11805,
      "max": [
        1.0,
        0.9999999403953552
      ],
      "min": [
        0.0,
        0.0
      ],
      "type": "VEC2"
    },
    {
      "bufferView": 0,
      "byteOffset": 2344680,
      "componentType": 5125,
      "count": 50223,
      "type": "SCALAR"
    },
    {
      "bufferView": 2,
      "byteOffset": 4564200,
      "componentType": 5126,
      "count": 41879,
      "max": [
        1.3005356788635254,
        0.26944026350975037,
        0.529818594455719
      ],
      "min": [
        0.8216167688369751,
        -0.3048812448978424,
        0.28847193717956543
      ],
      "type": "VEC3"
    },
    {
      "bufferView": 2,
      "byteOffset": 5066748,
      "componentType": 5126,
      "count": 41879,
      "max": [
        0.9999986290931702,
        1.0,
        0.9999982118606567
      ],
      "min": [
        -1.0,
        -1.0,
        -1.0
      ],
      "type": "VEC3"
    },
    {
      "bufferView": 3,
      "byteOffset": 2853920,
      "componentType": 5126,
      "count": 41879,
      "max": [
        0.9999893307685852,
        1.0,
        0.9999960064888,
        1.0
      ],
      "min": [
        -0.9999992251396179,
        -1.0,
        -0.9999898672103882,
        -1.0
      ],
      "type": "VEC4"
    },
    {
      "bufferView": 1,
      "byteOffset": 1521400,
      "componentType": 5126,
      "count": 41879,
      "max": [
        0.9999999403953552,
        0.9982208609580994
      ],
      "min": [
        0.0,
        0.0
      ],
      "type": "VEC2"
    },
    {
      "bufferView": 0,
      "byteOffset": 2545572,
      "componentType": 5125,
      "count": 180654,
      "type": "SCALAR"
    },
    {
      "bufferView": 2,
      "byteOffset": 5569296,
      "componentType": 5126,
      "count": 3804,
      "max": [
        0.304220050573349,
        0.0788392499089241,
        0.4209703803062439
      ],
      "min": [
        -0.06689772009849548,
        -0.10609497129917145,
        0.19880181550979614
      ],
      "type": "VEC3"
    },
    {
      "bufferView": 2,
      "byteOffset": 5614944,
      "componentType": 5126,
      "count": 3804,
      "max": [
        0.9984809756278992,
        0.9999999403953552,
        0.999975323677063
      ],
      "min": [
        -0.9994790554046631,
        -1.0,
        -0.9999794363975525
      ],
      "type": "VEC3"
    },
    {
      "bufferView": 3,
      "byteOffset": 3523984,
      "componentType": 5126,
      "count": 3804,
      "max": [
        0.9902777075767517,
        0.9999118447303772,
        0.9999704360961914,
        1.0
      ],
      "min": [
        -0.9989525079727173,
        -0.999879777431488,
        -0.9995180368423462,
        -1.0
      ],
      "type": "VEC4"
    },
    {
      "bufferView": 1,
      "byteOffset": 1856432,
      "componentType": 5126,
      "count": 3804,
      "max": [
        1.0,
        1.0
      ],
      "min": [
        0.0,
        0.0
      ],
      "type": "VEC2"
    },
    {
      "bufferView": 0,
      "byteOffset": 3268188,
      "componentType": 5125,
      "count": 16974,
      "type": "SCALAR"
    }
  ],
  "asset": {
    "extras": {
      "author": "Tomaso (https://sketchfab.com/Tomasoo)",
      "license": "CC-BY-4.0 (http://creativecommons.org/licenses/by/4.0/)",
      "source": "https://sketchfab.com/3d-models/btwin-triban-100-road-bike-1443433035054564801ca9098c7e6e9f",
      "title": "B’Twin Triban 100 Road Bike"
    },
    "generator": "Sketchfab-12.62.1",
    "version": "2.0"
  },
  "bufferViews": [
    {
      "buffer": 0,
      "byteLength": 3336084,
      "name": "floatBufferViews",
      "target": 34963
    },
    {
      "buffer": 0,
      "byteLength": 1886864,
      "byteOffset": 3336084,
      "byteStride": 8,
      "name": "floatBufferViews",
      "target": 34962
    },
    {
      "buffer": 0,
      "byteLength": 5660592,
      "byteOffset": 5222948,
      "byteStride": 12,
      "name": "floatBufferViews",
      "target": 34962
    },
    {
      "buffer": 0,
      "byteLength": 3584848,
      "byteOffset": 10883540,
      "byteStride": 16,
      "name": "floatBufferViews",
      "target": 34962
    }
  ],
  "buffers": [
    {
      "byteLength": 14468388,
      "uri": "scene.bin"
    }
  ],
  "images": [
    {
      "uri": "textures/Material.010_baseColor.png"
    },
    {
      "uri": "textures/Material.010_normal.png"
    },
    {
      "uri": "textures/Material.011_baseColor.png"
    },
    {
      "uri": "textures/Material.011_normal.png"
    },
    {
      "uri": "textures/Material.007_baseColor.png"
    },
    {
      "uri": "textures/Material.007_metallicRoughness.png"
    },
    {
      "uri": "textures/Material.007_normal.png"
    },
    {
      "uri": "textures/Material.001_baseColor.png"
    },
    {
      "uri": "textures/Material.001_metallicRoughness.png"
    },
    {
      "uri": "textures/Material.001_normal.png"
    },
    {
      "uri": "textures/Material.002_baseColor.png"
    },
    {
      "uri": "textures/material_0_baseColor.png"
    },
    {
      "uri": "textures/material_0_normal.png"
    }
  ],
  "materials": [
    {
      "doubleSided": true,
      "name": "Material.010",
      "normalTexture": {
        "index": 1
      },
      "pbrMetallicRoughness": {
        "baseColorTexture": {
          "index": 0
        },
        "metallicFactor": 0.5063644213,
        "roughnessFactor": 0.4698833823
      }
    },
    {
      "doubleSided": true,
      "name": "Material.011",
      "normalTexture": {
        "index": 3
      },
      "pbrMetallicRoughness": {
        "baseColorTexture": {
          "index": 2
        },
        "metallicFactor": 0.1050729925,
        "roughnessFactor": 0.421241997
      }
    },
    {
      "doubleSided": true,
      "name": "Material.007",
      "normalTexture": {
        "index": 6
      },
      "pbrMetallicRoughness": {
        "baseColorTexture": {
          "index": 4
        },
        "metallicFactor": 0.5671661529,
        "metallicRoughnessTexture": {
          "index": 5
        },
        "roughnessFactor": 0.4881239018
      }
    },
    {
      "doubleSided": true,
      "name": "Material.001",
      "normalTexture": {
        "index": 9
      },
      "pbrMetallicRoughness": {
        "baseColorTexture": {
          "index": 7
        },
        "metallicRoughnessTexture": {
          "index": 8
        },
        "roughnessFactor": 0.3300393995
      }
    },
    {
      "doubleSided": true,
      "name": "Material.002",
      "pbrMetallicRoughness": {
        "baseColorFactor": [
          0.5489256334,
          0.5489256334,
          0.5489256334,
          1.0
        ],
        "baseColorTexture": {
          "index": 10
        },
        "metallicFactor": 0.0,
        "roughnessFactor": 0.2935583605
      }
    },
    {
      "doubleSided": true,
      "name": "material_0",
      "normalTexture": {
        "index": 12
      },
      "pbrMetallicRoughness": {
        "baseColorFactor": [
          0.3604402653,
          0.3604402653,
          0.3604402653,
          1.0
        ],
        "baseColorTexture": {
          "index": 11
        },
        "metallicFactor": 0.0,
        "roughnessFactor": 0.5975670187
      }
    }
  ],
  "meshes": [
    {
      "name": "Back Wheel_Material.010_0",
      "primitives": [
        {
          "attributes": {
            "NORMAL": 1,
            "POSITION": 0,
            "TANGENT": 2,
            "TEXCOORD_0": 3
          },
          "indices": 4,
          "material": 0,
          "mode": 4
        }
      ]
    },
    {
      "name": "Front Wheel_Material.011_0",
      "primitives": [
        {
          "attributes": {
            "NORMAL": 6,
            "POSITION": 5,
            "TANGENT": 7,
            "TEXCOORD_0": 8
          },
          "indices": 9,
          "material": 1,
          "mode": 4
        }
      ]
    },
    {
      "name": "Various bike parts_Material.007_0",
      "primitives": [
        {
          "attributes": {
            "NORMAL": 11,
            "POSITION": 10,
            "TANGENT": 12,
            "TEXCOORD_0": 13
          },
          "indices": 14,
          "material": 2,
          "mode": 4
        }
      ]
    },
    {
      "name": "Various bike parts_Material.007_0",
      "primitives": [
        {
          "attributes": {
            "NORMAL": 16,
            "POSITION": 15,
            "TANGENT": 17,
            "TEXCOORD_0": 18
          },
          "indices": 19,
          "material": 2,
          "mode": 4
        }
      ]
    },
    {
      "name": "Pedal system_Material.001_0",
      "primitives": [
        {
          "attributes": {
            "NORMAL": 21,
            "POSITION": 20,
            "TANGENT": 22,
            "TEXCOORD_0": 23
          },
          "indices": 24,
          "material": 3,
          "mode": 4
        }
      ]
    },
    {
      "name": "Frame_Material.002_0",
      "primitives": [
        {
          "attributes": {
            "NORMAL": 26,
            "POSITION": 25,
            "TEXCOORD_0": 27
          },
          "indices": 28,
          "material": 4,
          "mode": 4
        }
      ]
    },
    {
      "name": "Steering wheel_Material.007_0",
      "primitives": [
        {
          "attributes": {
            "NORMAL": 30,
            "POSITION": 29,
            "TANGENT": 31,
            "TEXCOORD_0": 32
          },
          "indices": 33,
          "material": 2,
          "mode": 4
        }
      ]
    },
    {
      "name": "Seat_Material.003_0",
      "primitives": [
        {
          "attributes": {
            "NORMAL": 35,
            "POSITION": 34,
            "TANGENT": 36,
            "TEXCOORD_0": 37
          },
          "indices": 38,
          "material": 5,
          "mode": 4
        }
      ]
    }
  ],
  "nodes": [
    {
      "children": [
        1
      ],
      "matrix": [
        1.0,
        0.0,
        0.0,
        0.0,
        0.0,
        2.220446049250313e-16,
        -1.0,
        0.0,
        0.0,
        1.0,
        2.220446049250313e-16,
        0.0,
        0.0,
        0.0,
        0.0,
        1.0
      ],
      "name": "Sketchfab_model"
    },
    {
      "children": [
        2
      ],
      "matrix": [
        1.0,
        0.0,
        0.0,
        0.0,
        0.0,
        0.0,
        1.0,
        0.0,
        0.0,
        -1.0,
        0.0,
        0.0,
        0.0,
        0.0,
        0.0,
        1.0
      ],
      "name": "558f2b6ddf484946b84062943c68b8d9.fbx"
    },
    {
      "children": [
        3,
        6,
        8,
        10,
        12,
        15,
        17,
        19,
        21
      ],
      "name": "RootNode"
    },
    {
      "children": [
        4
      ],
      "matrix": [
        -29.08647719990347,
        -5.518906457566863,
        -95.51711910171437,
        0.0,
        56.63930913109449,
        79.46723428563203,
        -21.83912397841966,
        0.0,
        77.11008775993375,
        -60.45246356562044,
        -19.98834696773717,
        0.0,
        407.6245422363281,
        590.38623046875,
        -100.54539489746094,
        1.0
      ],
      "name": "Light"
    },
    {
      "children": [
        5
      ],
      "matrix": [
        1.0,
        0.0,
        0.0,
        0.0,
        0.0,
        2.220446049250313e-16,
        1.0,
        0.0,
        0.0,
        -1.0,
        2.220446049250313e-16,
        0.0,
        0.0,
        0.0,
        0.0,
        1.0
      ],
      "name": "Object_4"
    },
    {
      "name": "Object_5"
    },
    {
      "children": [
        7
      ],
      "matrix": [
        -65.15583280329096,
        -44.52713576570858,
        -61.41703047373549,
        0.0,
        -32.40134137821245,
        89.53957451233616,
        -30.542088974418615,
        0.0,
        68.59205472129975,
        -1.0718647115348782e-05,
        -72.7676336239627,
        0.0,
        735.88916015625,
        495.8309326171875,
        692.5791015625,
        1.0
      ],
      "name": "Camera"
    },
    {
      "name": "Object_7"
    },
    {
      "children": [
        9
      ],
      "matrix": [
        100.0,
        0.0,
        0.0,
        0.0,
        -0.0,
        -1.629206793918314e-05,
        -99.99999999999868,
        0.0,
        0.0,
        99.99999999999868,
        -1.629206793918314e-05,
        0.0,
        -67.39019012451172,
        -37.92948913574219,
        7.701648712158203,
        1.0
      ],
      "name": "Back Wheel"
    },
    {
      "mesh": 0,
      "name": "Back Wheel_Material.010_0"
    },
    {
      "children": [
        11
      ],
      "matrix": [
        100.0,
        0.0,
        0.0,
        0.0,
        0.0,
        -1.629206793918314e-05,
        -99.99999999999868,
        0.0,
        0.0,
        99.99999999999868,
        -1.629206793918314e-05,
        0.0,
        74.49822998046875,
        -37.911376953125,
        4.179014205932617,
        1.0
      ],
      "name": "Front Wheel"
    },
    {
      "mesh": 1,
      "name": "Front Wheel_Material.011_0"
    },
    {
      "children": [
        13,
        14
      ],
      "matrix": [
        100.0,
        0.0,
        0.0,
        0.0,
        -0.0,
        -1.629206793918314e-05,
        -99.99999999999868,
        0.0,
        0.0,
        99.99999999999868,
        -1.629206793918314e-05,
        0.0,
        -43.908111572265625,
        -0.37853649258613586,
        -3.462958335876465,
        1.0
      ],
      "name": "Various bike parts"
    },
    {
      "mesh": 2,
      "name": "Various bike parts_Material.007_0"
    },
    {
      "mesh": 3,
      "name": "Various bike parts_Material.007_0"
    },
    {
      "children": [
        16
      ],
      "matrix": [
        100.0,
        0.0,
        0.0,
        0.0,
        0.0,
        -1.629206793918314e-05,
        -99.99999999999868,
        0.0,
        0.0,
        99.99999999999868,
        -1.629206793918314e-05,
        0.0,
        2.700664758682251,
        -55.07190704345703,
        4.1548333168029785,
        1.0
      ],
      "name": "Pedal system"
    },
    {
      "mesh": 4,
      "name": "Pedal system_Material.001_0"
    },
    {
      "children": [
        18
      ],
      "matrix": [
        100.0,
        0.0,
        0.0,
        0.0,
        -0.0,
        -1.629206793918314e-05,
        -99.99999999999868,
        0.0,
        0.0,
        99.99999999999868,
        -1.629206793918314e-05,
        0.0,
        -43.908111572265625,
        -0.37853649258613586,
        -3.462958335876465,
        1.0
      ],
      "name": "Frame"
    },
    {
      "mesh": 5,
      "name": "Frame_Material.002_0"
    },
    {
      "children": [
        20
      ],
      "matrix": [
        100.0,
        0.0,
        0.0,
        0.0,
        -0.0,
        -1.629206793918314e-05,
        -99.99999999999868,
        0.0,
        0.0,
        99.99999999999868,
        -1.629206793918314e-05,
        0.0,
        -43.908111572265625,
        -0.37853649258613586,
        -3.462958335876465,
        1.0
      ],
      "name": "Steering wheel"
    },
    {
      "mesh": 6,
      "name": "Steering wheel_Material.007_0"
    },
    {
      "children": [
        22
      ],
      "matrix": [
        100.0,
        0.0,
        0.0,
        0.0,
        -0.0,
        -1.629206793918314e-05,
        -99.99999999999868,
        0.0,
        0.0,
        99.99999999999868,
        -1.629206793918314e-05,
        0.0,
        -43.908111572265625,
        -0.37853649258613586,
        -3.462958335876465,
        1.0
      ],
      "name": "Seat"
    },
    {
      "mesh": 7,
      "name": "Seat_Material.003_0"
    }
  ],
  "samplers": [
    {
      "magFilter": 9729,
      "minFilter": 9987,
      "wrapS": 10497,
      "wrapT": 10497
    }
  ],
  "scene": 0,
  "scenes": [
    {
      "name": "Sketchfab_Scene",
      "nodes": [
        0
      ]
    }
  ],
  "textures": [
    {
      "sampler": 0,
      "source": 0
    },
    {
      "sampler": 0,
      "source": 1
    },
    {
      "sampler": 0,
      "source": 2
    },
    {
      "sampler": 0,
      "source": 3
    },
    {
      "sampler": 0,
      "source": 4
    },
    {
      "sampler": 0,
      "source": 5
    },
    {
      "sampler": 0,
      "source": 6
    },
    {
      "sampler": 0,
      "source": 7
    },
    {
      "sampler": 0,
      "source": 8
    },
    {
      "sampler": 0,
      "source": 9
    },
    {
      "sampler": 0,
      "source": 10
    },
    {
      "sampler": 0,
      "source": 11
    },
    {
      "sampler": 0,
      "source": 12
    }
  ]
}
